<?xml version="1.0" standalone="no"?>
<!DOCTYPE svg PUBLIC "-//W3C//DTD SVG 20010904//EN"
 "http://www.w3.org/TR/2001/REC-SVG-20010904/DTD/svg10.dtd">
<svg version="1.0" xmlns="http://www.w3.org/2000/svg"
 width="1290.000000pt" height="420.000000pt" viewBox="0 0 1290.000000 420.000000"
 preserveAspectRatio="xMidYMid meet">

<g transform="translate(0.000000,420.000000) scale(0.100000,-0.100000)"
fill="#000000" stroke="none">
<path d="M120 2105 l0 -1605 1605 0 1605 0 0 1605 0 1605 -1605 0 -1605 0 0
-1605z m2160 635 c12 -7 7 -16 -23 -45 -20 -20 -41 -34 -46 -31 -12 8 -22 -20
-15 -39 4 -8 16 -15 28 -15 l21 -1 -22 -18 c-29 -24 -30 -45 -3 -36 22 7 23 5
14 -19 -3 -9 -12 -16 -20 -16 -8 0 -14 -4 -14 -10 0 -5 7 -10 15 -10 8 0 15
-9 15 -20 0 -19 -7 -20 -187 -22 l-188 -3 188 -2 c141 -3 187 -6 186 -16 -1
-6 -1 -57 0 -112 l1 -100 29 -13 c138 -61 165 -240 51 -336 -17 -14 -37 -26
-43 -27 -38 -3 51 -17 118 -19 86 -2 137 -12 119 -22 -6 -4 -75 -3 -155 2
-192 13 -716 12 -1014 0 -132 -6 -265 -11 -295 -13 -30 -1 -57 3 -60 8 -3 6
43 12 123 16 70 4 130 8 132 11 3 3 -14 11 -37 19 -65 21 -160 119 -187 192
-64 174 15 366 181 443 53 24 76 29 143 29 69 0 89 -4 145 -31 106 -51 181
-143 198 -246 7 -38 11 -43 36 -46 16 -2 32 0 37 5 22 23 -36 186 -91 255 -17
20 -30 39 -30 42 0 3 124 6 275 6 253 0 275 1 275 17 0 10 -12 28 -27 41 l-28
23 28 -6 c22 -4 27 -2 27 15 0 11 -6 20 -14 20 -16 0 -38 24 -30 33 4 3 15 2
25 -4 15 -7 19 -6 19 6 0 8 -5 15 -12 15 -14 0 -58 40 -58 53 0 5 17 7 38 5
28 -4 44 -1 61 13 25 21 48 24 71 9z m-1200 -1010 c23 -23 24 -33 10 -60 -7
-13 -7 -21 0 -25 18 -11 11 -53 -12 -69 -13 -9 -43 -16 -70 -16 l-48 0 0 95 0
95 50 0 c37 0 55 -5 70 -20z m80 -15 c0 -33 2 -35 35 -35 33 0 35 2 35 35 0
28 4 35 20 35 19 0 20 -7 20 -95 0 -88 -1 -95 -20 -95 -16 0 -20 7 -20 35 0
33 -2 35 -35 35 -33 0 -35 -2 -35 -35 0 -28 -4 -35 -20 -35 -19 0 -20 7 -20
95 0 88 1 95 20 95 16 0 20 -7 20 -35z m285 10 c36 -35 35 -106 -1 -140 -35
-33 -84 -33 -121 -1 -38 33 -40 102 -4 140 33 35 92 36 126 1z m189 4 c22 -18
26 -28 26 -74 0 -46 -4 -56 -26 -74 -36 -28 -86 -27 -121 3 -23 20 -28 32 -28
71 0 39 5 51 28 71 35 30 85 31 121 3z m119 -41 l25 -63 17 40 c10 22 21 50
26 63 5 13 17 22 29 22 19 0 20 -6 20 -95 0 -88 -1 -95 -20 -95 -16 0 -20 7
-21 38 l-1 37 -15 -37 c-20 -48 -48 -50 -67 -5 l-14 32 -1 -33 c-1 -29 -4 -33
-23 -30 -21 3 -23 9 -26 82 -3 92 0 106 27 106 14 0 25 -16 44 -62z m197 -34
c0 -93 -1 -95 -22 -92 -21 3 -23 9 -26 82 -3 92 0 106 28 106 19 0 20 -6 20
-96z m168 76 c30 -28 28 -50 -3 -50 -14 0 -25 4 -25 9 0 15 -30 21 -51 11 -27
-15 -26 -75 2 -90 16 -9 26 -8 44 4 52 34 77 5 29 -33 -37 -29 -89 -27 -119 4
-19 18 -25 35 -25 70 0 35 6 52 25 70 31 32 91 34 123 5z m132 16 c0 -2 13
-41 30 -87 16 -46 30 -87 30 -91 0 -17 -40 -7 -50 12 -6 12 -21 20 -35 20 -14
0 -29 -8 -35 -20 -12 -22 -55 -29 -48 -7 3 6 17 49 33 95 25 71 32 82 52 82
13 0 23 -2 23 -4z m142 -58 l26 -63 15 35 c8 19 20 48 26 63 8 21 17 28 33 25
21 -3 23 -8 22 -93 0 -85 -2 -90 -22 -93 -19 -3 -22 1 -23 35 l0 38 -16 -38
c-20 -49 -51 -48 -69 3 l-12 35 -1 -37 c-1 -31 -5 -38 -21 -38 -19 0 -20 7
-20 95 0 85 2 95 18 95 13 0 26 -18 44 -62z"/>
<path d="M1340 2450 c81 -9 126 -28 183 -77 42 -36 42 -36 -4 8 -56 54 -119
80 -193 78 -51 -2 -51 -2 14 -9z"/>
<path d="M1230 2440 c-18 -12 -2 -12 25 0 13 6 15 9 5 9 -8 0 -22 -4 -30 -9z"/>
<path d="M1144 2388 c-25 -23 -50 -51 -55 -62 -6 -12 2 -6 17 13 15 18 45 46
67 62 22 16 35 29 28 29 -6 0 -32 -19 -57 -42z"/>
<path d="M1313 2383 c9 -2 25 -2 35 0 9 3 1 5 -18 5 -19 0 -27 -2 -17 -5z"/>
<path d="M1217 2351 c-43 -28 -87 -90 -87 -123 0 -7 9 5 19 27 20 44 59 84
106 108 17 9 25 16 19 17 -5 0 -31 -13 -57 -29z"/>
<path d="M1576 2307 c3 -10 9 -15 12 -12 3 3 0 11 -7 18 -10 9 -11 8 -5 -6z"/>
<path d="M2015 2281 c-70 -33 -104 -66 -140 -138 l-26 -53 -89 0 -88 0 -7 -32
c-16 -70 -95 -159 -180 -203 -28 -14 -42 -24 -32 -20 10 3 161 5 335 5 316 0
317 0 286 19 -50 30 -94 108 -94 165 0 73 61 164 126 188 32 11 34 15 34 55 0
42 -1 43 -32 43 -18 -1 -60 -14 -93 -29z"/>
<path d="M1290 2286 c0 -2 7 -6 15 -10 8 -3 15 -1 15 4 0 6 -7 10 -15 10 -8 0
-15 -2 -15 -4z"/>
<path d="M1370 2286 c0 -2 7 -7 16 -10 8 -3 12 -2 9 4 -6 10 -25 14 -25 6z"/>
<path d="M1591 2275 c1 -19 18 -51 18 -35 0 8 -4 22 -9 30 -5 8 -9 11 -9 5z"/>
<path d="M1412 2263 c2 -6 -6 -19 -17 -28 -19 -16 -19 -16 4 -4 21 10 26 9 38
-7 7 -10 13 -13 13 -7 0 6 -9 21 -20 34 -11 13 -19 19 -18 12z"/>
<path d="M1230 2235 c-6 -8 -13 -31 -15 -52 -1 -21 0 -26 2 -10 5 31 6 31 36
16 19 -9 19 -8 -3 9 -20 17 -22 22 -11 36 7 9 11 16 8 16 -2 0 -10 -7 -17 -15z"/>
<path d="M1348 2207 c-15 -12 -15 -14 3 -25 10 -7 22 -12 26 -12 5 0 0 5 -10
11 -14 8 -16 14 -6 25 14 17 9 18 -13 1z"/>
<path d="M1613 2170 c0 -30 2 -43 4 -27 2 15 2 39 0 55 -2 15 -4 2 -4 -28z"/>
<path d="M1123 2170 c0 -25 2 -35 4 -22 2 12 2 32 0 45 -2 12 -4 2 -4 -23z"/>
<path d="M1311 2191 c-1 -17 -5 -22 -18 -17 -12 4 -11 0 5 -12 18 -14 20 -20
10 -31 -11 -11 -9 -11 11 -1 14 7 19 15 13 19 -5 3 -12 20 -15 36 -3 23 -4 25
-6 6z"/>
<path d="M1451 2178 c-1 -15 -5 -38 -11 -53 -6 -16 -6 -24 0 -20 12 7 24 69
17 87 -3 7 -6 1 -6 -14z"/>
<path d="M1546 2135 c-3 -9 -6 -22 -5 -28 0 -7 5 -1 10 12 5 13 8 26 5 28 -2
2 -6 -3 -10 -12z"/>
<path d="M1220 2124 c0 -6 14 -23 32 -40 18 -16 26 -21 19 -12 -7 9 -9 23 -5
29 5 8 3 9 -6 4 -8 -5 -18 -1 -27 10 -7 11 -13 14 -13 9z"/>
<path d="M2081 2108 c-10 -28 2 -54 29 -63 27 -9 25 -32 -4 -39 -31 -8 -39
-40 -17 -68 23 -28 68 -18 77 17 8 32 22 32 34 0 12 -32 34 -41 66 -26 35 16
30 61 -8 79 -34 16 -35 24 -6 37 54 25 47 77 -10 83 -26 3 -32 -1 -38 -22 -8
-32 -26 -33 -39 -3 -15 33 -72 37 -84 5z m68 -2 c14 -16 5 -42 -16 -50 -29
-11 -58 35 -36 57 11 12 40 8 52 -7z m119 2 c16 -16 15 -23 -4 -42 -12 -12
-20 -13 -35 -6 -19 10 -26 40 -12 53 10 11 38 8 51 -5z m-57 -55 c19 -19 6
-58 -19 -61 -40 -6 -61 29 -39 66 9 13 42 11 58 -5z m-62 -67 c13 -16 -1 -56
-19 -56 -33 0 -55 42 -33 63 11 12 40 8 52 -7z m122 -2 c9 -11 10 -20 2 -32
-13 -22 -43 -22 -56 -1 -24 38 25 68 54 33z"/>
<path d="M1601 2103 c-1 -6 -4 -20 -7 -30 -5 -17 -5 -17 6 0 6 10 9 23 6 30
-3 9 -5 9 -5 0z"/>
<path d="M1140 2081 c0 -6 4 -13 10 -16 6 -3 7 1 4 9 -7 18 -14 21 -14 7z"/>
<path d="M1399 2073 c-13 -17 -13 -17 6 -3 11 8 22 16 24 17 2 2 0 3 -6 3 -6
0 -17 -8 -24 -17z"/>
<path d="M1507 2048 c-17 -24 -47 -49 -80 -64 -36 -18 -43 -24 -22 -19 17 3
45 19 64 34 37 29 77 78 70 85 -2 2 -17 -14 -32 -36z"/>
<path d="M1197 2011 c23 -22 48 -41 55 -40 8 0 5 5 -6 12 -11 7 -35 25 -55 41
-32 25 -31 24 6 -13z"/>
<path d="M1525 1970 c-4 -6 -30 -24 -58 -40 -29 -16 -47 -30 -41 -30 13 0 100
55 108 69 4 6 5 11 2 11 -3 0 -8 -5 -11 -10z"/>
<path d="M1278 1963 c7 -3 16 -2 19 1 4 3 -2 6 -13 5 -11 0 -14 -3 -6 -6z"/>
<path d="M1323 1953 c9 -2 25 -2 35 0 9 3 1 5 -18 5 -19 0 -27 -2 -17 -5z"/>
<path d="M1007 1704 c-14 -14 -6 -24 19 -24 16 0 24 5 22 13 -5 14 -31 21 -41
11z"/>
<path d="M1005 1630 c-4 -7 -3 -16 3 -22 14 -14 45 -2 40 15 -6 16 -34 21 -43
7z"/>
<path d="M1356 1694 c-9 -8 -16 -26 -16 -39 0 -21 23 -55 36 -55 24 0 44 25
44 55 0 24 -6 38 -19 45 -25 13 -27 13 -45 -6z"/>
<path d="M1558 1703 c-38 -9 -34 -87 4 -99 26 -8 61 29 56 59 -4 24 -36 45
-60 40z"/>
<path d="M2216 1655 c-3 -9 0 -15 9 -15 9 0 12 6 9 15 -4 8 -7 15 -9 15 -2 0
-5 -7 -9 -15z"/>
<path d="M9535 2944 c-38 -8 -108 -34 -155 -56 -69 -33 -100 -57 -170 -127
-142 -143 -197 -290 -188 -501 9 -209 83 -364 235 -491 55 -46 186 -111 256
-128 139 -33 314 -22 444 29 66 25 193 105 209 131 3 6 -30 48 -77 95 l-83 84
-31 -29 c-117 -112 -353 -133 -503 -44 -145 84 -223 271 -194 460 16 101 49
170 113 238 138 146 384 165 553 44 l58 -42 81 81 c73 73 79 82 66 98 -31 38
-165 115 -243 140 -105 33 -267 41 -371 18z"/>
<path d="M10560 2535 c-309 -87 -417 -529 -190 -778 134 -147 373 -180 515
-72 25 19 47 35 50 35 3 0 5 -18 5 -40 l0 -40 120 0 120 0 0 445 0 445 -120 0
-120 0 0 -41 0 -41 -35 26 c-89 68 -230 93 -345 61z m233 -216 c86 -23 157
-127 157 -228 0 -75 -17 -125 -62 -176 -117 -133 -334 -81 -384 92 -22 75 -9
167 33 227 53 77 159 112 256 85z"/>
<path d="M11767 2531 c-31 -10 -73 -31 -92 -45 -18 -14 -36 -26 -39 -26 -3 0
-6 16 -6 35 l0 35 -120 0 -120 0 0 -445 0 -445 119 0 120 0 3 294 c3 279 4
296 24 322 41 56 69 69 149 69 87 0 118 -17 153 -85 21 -43 22 -54 22 -322 l0
-278 120 0 120 0 0 288 c0 325 2 337 76 379 84 48 187 24 241 -56 23 -33 23
-39 23 -322 l0 -289 121 0 120 0 -3 333 c-3 322 -4 334 -26 382 -31 68 -93
128 -166 162 -54 25 -73 28 -156 28 -83 0 -103 -4 -155 -28 -33 -16 -77 -44
-97 -64 l-37 -36 -46 42 c-64 59 -124 84 -215 88 -54 2 -91 -2 -133 -16z"/>
<path d="M7770 1120 l0 -220 25 0 25 0 0 100 c0 94 2 103 25 125 24 24 57 31
90 19 31 -12 45 -59 45 -154 0 -89 0 -90 25 -90 l25 0 0 100 c0 117 -14 161
-59 184 -40 21 -79 20 -118 -4 l-33 -20 0 90 c0 89 0 90 -25 90 l-25 0 0 -220z"/>
<path d="M9130 1120 l0 -220 25 0 25 0 0 220 0 220 -25 0 -25 0 0 -220z"/>
<path d="M3832 1258 c-78 -189 -142 -347 -142 -352 0 -3 12 -6 26 -6 21 0 29
8 47 50 l21 50 96 0 96 0 21 -50 c18 -42 26 -50 47 -50 14 0 26 3 26 8 0 4
-38 99 -84 212 -100 245 -107 251 -154 138z m86 -111 c17 -45 32 -86 32 -90 0
-4 -31 -7 -70 -7 -38 0 -70 3 -70 7 0 13 65 173 70 173 3 0 20 -37 38 -83z"/>
<path d="M4612 1118 l3 -213 143 -3 142 -3 0 26 0 25 -115 0 -115 0 0 75 0 75
105 0 c98 0 105 1 105 20 0 19 -7 20 -105 20 l-105 0 0 70 0 70 110 0 110 0 0
25 0 25 -140 0 -140 0 2 -212z"/>
<path d="M7400 1115 l0 -215 30 0 30 0 0 85 0 85 68 0 c82 0 128 21 154 70 23
44 23 76 0 119 -30 55 -71 71 -184 71 l-98 0 0 -215z m215 140 c35 -34 34 -86
-1 -114 -21 -16 -41 -21 -90 -21 l-64 0 0 80 0 80 65 0 c57 0 69 -3 90 -25z"/>
<path d="M6230 1255 l0 -65 -35 0 c-28 0 -35 -4 -35 -20 0 -16 7 -20 35 -20
l35 0 0 -125 0 -125 25 0 24 0 3 123 3 122 38 3 c28 2 37 8 37 22 0 14 -9 20
-37 22 l-38 3 -3 63 c-3 58 -4 62 -27 62 -24 0 -25 -3 -25 -65z"/>
<path d="M4223 1180 c-27 -16 -33 -17 -33 -5 0 9 -10 15 -25 15 l-25 0 0 -145
0 -145 25 0 25 0 0 100 c0 94 2 103 25 125 24 24 57 31 90 19 31 -12 45 -59
45 -154 l0 -90 26 0 26 0 -4 116 -3 116 -37 34 c-44 40 -86 44 -135 14z"/>
<path d="M5035 1186 c-84 -36 -114 -141 -64 -222 38 -62 141 -84 208 -43 32
19 32 21 16 39 -16 17 -20 18 -38 5 -63 -44 -157 6 -157 83 0 78 78 126 143
88 23 -13 33 -14 43 -5 21 17 17 27 -18 49 -38 23 -89 25 -133 6z"/>
<path d="M5319 1180 c-49 -26 -84 -95 -76 -151 11 -86 70 -132 160 -126 51 3
62 8 94 40 32 31 37 43 41 94 3 49 0 64 -20 93 -45 67 -128 88 -199 50z m120
-44 c89 -46 54 -186 -47 -186 -90 0 -129 110 -62 173 34 30 67 34 109 13z"/>
<path d="M5630 1172 c-18 -18 -30 -41 -30 -57 0 -34 38 -71 88 -85 39 -10 72
-33 72 -48 -1 -38 -77 -49 -121 -19 -22 16 -49 8 -49 -14 0 -20 66 -49 113
-49 40 0 54 5 78 29 55 55 27 116 -69 146 -29 9 -56 23 -59 31 -14 38 60 60
104 29 18 -13 22 -12 38 5 16 18 15 19 -10 36 -14 9 -48 19 -75 22 -44 4 -52
2 -80 -26z"/>
<path d="M6470 1182 c-97 -49 -110 -191 -22 -257 40 -29 128 -32 171 -5 31 20
33 23 18 37 -13 14 -21 14 -42 5 -33 -15 -95 -15 -116 1 -15 11 -39 49 -39 61
0 3 52 6 115 6 l115 0 0 33 c0 73 -62 137 -135 137 -16 0 -46 -8 -65 -18z
m125 -57 c46 -46 35 -55 -65 -55 -93 0 -104 6 -77 41 35 45 105 52 142 14z"/>
<path d="M6816 1179 c-21 -17 -26 -18 -26 -5 0 10 -9 16 -25 16 l-25 0 0 -145
0 -145 25 0 25 0 0 105 c0 92 3 108 20 125 25 25 71 26 99 3 18 -16 21 -30 23
-123 l3 -105 28 -3 27 -3 0 110 c0 102 2 111 22 125 31 22 74 20 98 -4 17 -17
20 -33 20 -126 l0 -105 28 3 c27 3 27 3 30 90 4 115 -9 163 -51 188 -42 26
-86 25 -128 -3 l-34 -23 -34 23 c-42 29 -90 29 -125 2z"/>
<path d="M8170 1182 c-19 -9 -45 -33 -58 -52 -20 -29 -23 -45 -20 -92 5 -63
27 -96 82 -125 66 -34 203 8 166 52 -11 14 -15 14 -36 0 -13 -8 -43 -15 -68
-15 -37 0 -48 5 -70 31 -14 17 -26 35 -26 40 0 5 51 9 115 9 l115 0 0 38 c0
101 -105 162 -200 114z m125 -57 c46 -46 35 -55 -65 -55 -58 0 -90 4 -90 11 0
6 13 24 29 40 38 38 91 40 126 4z"/>
<path d="M8523 1180 c-27 -16 -33 -17 -33 -5 0 9 -10 15 -25 15 l-25 0 0 -145
0 -145 25 0 25 0 0 100 c0 94 2 103 25 125 24 24 57 31 90 19 31 -12 45 -59
45 -154 l0 -90 26 0 26 0 -4 116 -3 116 -37 34 c-44 40 -86 44 -135 14z"/>
<path d="M8840 1182 c-19 -9 -45 -33 -58 -52 -32 -48 -28 -137 9 -176 77 -82
204 -69 251 26 66 130 -72 268 -202 202z m128 -57 c38 -32 48 -72 28 -118 -17
-41 -41 -57 -89 -57 -45 0 -85 32 -93 76 -18 96 82 160 154 99z"/>
<path d="M9335 1186 c-63 -28 -100 -96 -88 -159 14 -79 72 -127 153 -127 123
0 191 148 112 242 -46 54 -115 71 -177 44z m126 -65 c62 -62 20 -171 -66 -171
-52 0 -95 44 -95 97 0 92 98 137 161 74z"/>
<path d="M9670 1183 c-19 -10 -43 -33 -54 -52 -24 -42 -25 -120 -2 -156 41
-63 138 -85 190 -44 l26 20 0 -39 c0 -79 -98 -117 -168 -65 -29 21 -30 21 -46
4 -16 -18 -15 -20 10 -40 76 -60 194 -44 240 33 16 26 20 56 22 189 l4 157
-31 0 c-22 0 -31 -5 -31 -17 0 -15 -2 -14 -20 2 -28 26 -98 30 -140 8z m121
-43 c10 -6 26 -25 35 -42 34 -65 -11 -138 -85 -138 -40 1 -62 14 -79 47 -44
82 47 176 129 133z"/>
<path d="M5855 1171 c3 -10 28 -69 54 -132 l49 -113 -34 -68 c-19 -37 -34 -70
-34 -73 0 -3 12 -5 28 -5 26 0 32 10 117 196 50 108 92 200 93 205 2 5 -9 9
-25 9 -26 0 -31 -7 -68 -96 -22 -52 -42 -97 -46 -100 -3 -2 -24 41 -45 96 -37
94 -41 100 -67 100 -23 0 -27 -3 -22 -19z"/>
<path d="M9999 1057 l58 -134 -33 -64 c-18 -35 -33 -68 -34 -72 0 -5 12 -7 27
-5 24 3 35 21 113 188 111 239 105 220 72 220 -25 0 -31 -8 -71 -100 -24 -55
-45 -99 -47 -97 -2 1 -21 45 -43 97 -36 88 -41 95 -69 98 l-31 3 58 -134z"/>
</g>
</svg>
